<svg xmlns="http://www.w3.org/2000/svg" viewBox="0 0 326 261.84"><defs><style>.cls-1{fill:#fff;stroke:#000;stroke-miterlimit:10;stroke-width:10px}.cls-2{fill:none}</style></defs><title>chest</title><g id="Layer_2" data-name="Layer 2"><g id="Layer_1-2" data-name="Layer 1"><g id="chest"><path class="cls-1" d="M5 71.84h316v185H5z"/><path class="cls-1" d="M39 107.84h248v113H39z"/><g id="undertop"><path class="cls-1" d="M28.44 5h269.12A23.44 23.44 0 0 1 321 28.44v43.4H5v-43.4A23.44 23.44 0 0 1 28.44 5z"/><path class="cls-1" d="M28.44 5H39v66.84H5v-43.4A23.44 23.44 0 0 1 28.44 5zM287 5h10.56A23.44 23.44 0 0 1 321 28.44v43.4h-34V5z"/></g><path id="lock" class="cls-1" d="M137 47.23h52v60.62h-52z"/><g id="reward-1"><path id="reward-1-svg" class="cls-1" d="M100.42 179.06L73.37 151.6l34.86-4.59-7.81 32.05z"/><path class="cls-2" d="M58.64 129.67h68.19v68.19H58.64z"/></g><g id="reward-2"><path id="reward-2-2" data-name="reward-2" class="cls-1" d="M163.98 181.88l-17.19-13.66 6.29-18.57 19.96-2.15 14.58 18.42-23.64 15.96z"/><path class="cls-2" d="M130.11 129.67h68.19v68.19h-68.19z"/></g><g id="reward-3"><path id="reward-3-svg" class="cls-1" d="M246.63 175.11l-10.99 7.3-10.98-7.3v-25.53l10.98-7.31 10.99 7.31v25.53z"/><path class="cls-2" d="M201.55 129.67h68.19v68.19h-68.19z"/></g></g></g></g></svg>