<svg xmlns="http://www.w3.org/2000/svg" viewBox="0 0 312.06 83.67"><title>final-reward</title><g data-name="Layer 1"><path d="M30.87 47.46V29.61H14.14v17.85H0V.77h14.14v16.52h16.73V.77H45v46.7zM50 24.15C50 9.8 61.18 0 75.6 0s25.55 9.8 25.55 24.15S90 48.3 75.6 48.3 50 38.5 50 24.15zm36.75 0c0-6.51-4.41-11.69-11.2-11.69S64.4 17.64 64.4 24.15s4.41 11.69 11.2 11.69 11.2-5.18 11.2-11.69zM103.67 24.15C103.67 9.8 114.8 0 129.22 0s25.55 9.8 25.55 24.15-11.13 24.15-25.55 24.15-25.55-9.8-25.55-24.15zm36.75 0c0-6.51-4.41-11.69-11.2-11.69S118 17.64 118 24.15s4.41 11.69 11.2 11.69 11.22-5.18 11.22-11.69zM185.5 47.46l-6.44-14.7h-5.11v14.7h-14.14V.77h24.92c10.92 0 16.8 7.28 16.8 16 0 8.05-4.69 12.32-8.4 14.14l8.47 16.52zm1.68-30.73c0-2.52-2.24-3.64-4.62-3.64h-8.61v7.35h8.61c2.38 0 4.62-1.12 4.62-3.71zM238.42 47.46L236.74 42h-16.8l-1.68 5.46h-16L219.45.77h17.78l17.22 46.7zm-10.08-32.83l-4.62 15.05H233zM264.53 47.46V28.91L247 .77h15.89l8.68 15.75L280.14.77H296l-17.33 28.14v18.55zM299 30.1L297.08.77h15l-1.77 29.33zm-1.75 10.71a7.42 7.42 0 1 1 7.42 7.42 7.53 7.53 0 0 1-7.45-7.42zM28.37 83.37v-6.76L22 66.36h5.79l3.16 5.74 3.11-5.74h5.79l-6.33 10.25v6.76zM38.82 74.88c0-5.23 4.05-8.8 9.31-8.8s9.31 3.57 9.31 8.8-4.05 8.8-9.31 8.8-9.31-3.58-9.31-8.8zm13.39 0a4.08 4.08 0 1 0-4.08 4.26 4 4 0 0 0 4.08-4.26zM59.27 76.38v-10h5.23v9.82a3.18 3.18 0 0 0 6.35 0v-9.84h5.23v10c0 4.23-2.65 7.32-8.39 7.32s-8.42-3.09-8.42-7.3zM98.29 83.37l-2.19-9.64-2.19 9.64H88.5l-4.87-17h5.77l2.19 10.4 2.58-10.4H98l2.58 10.4 2.17-10.4h5.79l-4.87 17zM108.21 74.88c0-5.23 4.05-8.8 9.31-8.8s9.31 3.57 9.31 8.8-4.05 8.8-9.31 8.8-9.31-3.58-9.31-8.8zm13.39 0a4.08 4.08 0 1 0-4.08 4.26 4 4 0 0 0 4.07-4.26zM140.07 83.37l-6.27-8.62v8.62h-5.15v-17H134l5.92 8.06v-8.07H145v17zM157.92 83.37V70.85h-4.56v-4.49h14.24v4.49h-4.54v12.52zM180.68 83.37v-6.5h-6.09v6.5h-5.15v-17h5.15v6h6.09v-6h5.15v17zM188.58 83.37v-17h5.15v17zM195.18 81l2.68-3.83a7.92 7.92 0 0 0 5.48 2.19c1 0 1.89-.25 1.89-.92 0-1.63-9.49 0-9.49-6.68 0-2.88 2.4-5.63 7.06-5.63a11.22 11.22 0 0 1 7.2 2.35l-2.75 3.65a8.59 8.59 0 0 0-5-1.68c-1 0-1.3.33-1.3.76 0 1.61 9.46.23 9.46 6.55 0 3.75-2.78 5.92-7.34 5.92a11.2 11.2 0 0 1-7.89-2.68zM222.25 83.37V70.85h-4.56v-4.49h14.25v4.49h-4.54v12.52zM233.77 83.37v-17h12.9v4.49h-7.75v1.68h7.57V77h-7.57v1.86h7.75v4.49zM259.42 83.37l-3.11-5.2-3.11 5.2h-6.07l5.69-8.72-5.3-8.29h6l2.75 4.84 2.7-4.84h6.09l-5.3 8.26 5.69 8.75zM270 83.37V70.85h-4.56v-4.49h14.25v4.49h-4.49v12.52zM281.72 77L281 66.36h5.46L285.85 77zm-.64 3.9a2.7 2.7 0 1 1 2.7 2.7 2.74 2.74 0 0 1-2.7-2.65z"/></g></svg>