<svg xmlns="http://www.w3.org/2000/svg" viewBox="0 0 1548.29 293.27"><defs><style>.cls-1{fill:#fff;stroke:#000;stroke-miterlimit:10;stroke-width:10px}</style></defs><title>layer-2_1</title><g id="Layer_2" data-name="Layer 2"><g id="Layer_1-2" data-name="Layer 1"><path class="cls-1" d="M2.35 35.69l56.25-30 54 30v257.58M112.6 293.27V35.69l56.25-30 54 30v257.58M222.85 293.27V35.69l56.26-30 54 30v257.58M333.11 293.27V35.69l56.25-30 54 30v257.58M443.36 293.27V35.69l56.25-30 54 30v257.58M553.61 293.27V35.69l56.25-30 54 30v257.58M663.86 293.27V35.69l56.25-30 54 30v257.58M774.11 293.27V35.69l56.25-30 54 30v257.58M884.36 293.27V35.69l56.25-30 54 30v257.58M994.61 293.27V35.69l56.25-30 54 30v257.58"/><path class="cls-1" d="M1104.86 293.27V35.69l56.25-30 54 30v257.58M1215.11 293.27V35.69l56.25-30 54 30v257.58M1325.36 293.27V35.69l56.25-30 54 30v257.58M1435.61 293.27V35.69l56.25-30 54 30"/></g></g></svg>