<svg xmlns="http://www.w3.org/2000/svg" viewBox="0 0 493.57 94.34"><title>reward-2</title><g data-name="Layer 1"><path d="M30.87 47.46V29.61H14.14v17.85H0V.77h14.14v16.52h16.73V.77H45v46.7zM52.57 47.46V.77H88v12.32H66.71v4.62H87.5V30H66.71v5.11H88v12.35zM94.29 47.46V.77h28.35c9.66 0 13.86 6.44 13.86 11.9 0 5.81-3.43 9.73-8 10.71 5 .77 8.89 5.39 8.89 11.41 0 6.51-4.41 12.67-13.79 12.67zm27.86-32.27a2.69 2.69 0 0 0-2.8-2.66h-10.92V18h10.92a2.76 2.76 0 0 0 2.8-2.81zm.91 17.57a3 3 0 0 0-3.29-3h-11.34v6h11.34c2.03-.06 3.29-1.25 3.29-3zM143.08 47.46V.77h35.42v12.32h-21.28v4.62H178V30h-20.78v5.11h21.28v12.35zM184.8 47.46V.77h24.92c10.92 0 16.8 7.28 16.8 16s-5.88 16-16.8 16h-10.78v14.7zm27.37-30.66c0-2.52-1.89-3.71-4.27-3.71h-9v7.35h9c2.38 0 4.27-1.19 4.27-3.64zM228.62 24.15C228.62 9.8 239.75 0 254.17 0s25.55 9.8 25.55 24.15-11.13 24.15-25.55 24.15-25.55-9.8-25.55-24.15zm36.75 0c0-6.51-4.41-11.69-11.2-11.69S243 17.64 243 24.15s4.41 11.69 11.2 11.69 11.17-5.18 11.17-11.69zM282.87 47.46l8.47-16.52c-3.71-1.82-8.4-6.09-8.4-14.14 0-8.75 5.88-16 16.8-16h24.92v46.7h-14.14V32.76h-5.11L299 47.46zm27.65-27v-7.37h-8.61c-2.38 0-4.62 1.12-4.62 3.64s2.24 3.71 4.62 3.71zM342.23 47.46V13.09H329.7V.77h39.13v12.32h-12.46v34.37zM404.74 47.46V29.61H388v17.85h-14.14V.77H388v16.52h16.73V.77h14.14v46.7zM423.91 24.15C423.91 9.8 435 0 449.47 0S475 9.8 475 24.15 463.89 48.3 449.47 48.3s-25.56-9.8-25.56-24.15zm36.75 0c0-6.51-4.41-11.69-11.2-11.69s-11.2 5.18-11.2 11.69 4.41 11.69 11.2 11.69 11.21-5.18 11.21-11.69zM480.47 30.1L478.58.77h15l-1.77 29.33zm-1.75 10.71a7.42 7.42 0 1 1 7.42 7.42 7.53 7.53 0 0 1-7.42-7.42zM61.6 78.51c0-7.11 5.52-12 12.66-12s12.66 4.86 12.66 12-5.52 12-12.66 12-12.66-4.88-12.66-12zm18.22 0a5.56 5.56 0 1 0-5.55 5.79 5.48 5.48 0 0 0 5.55-5.79zM95.39 74.25c0 2.25 1.35 2.84 3.19 2.84a9.67 9.67 0 0 0 3.37-.52v-9.64h7v23.14h-7v-7.39a21.32 21.32 0 0 1-4.41.52c-6.35 0-9.26-3.61-9.26-9v-7.27h7.11zM112.71 90.07V66.93h17.56V73h-10.56v2.29H130v6.11h-10.3V84h10.55v6.11zM133.38 90.07V66.93h12.35c5.41 0 8.33 3.61 8.33 7.95s-2.91 7.91-8.33 7.91h-5.34v7.29zm13.57-15.2c0-1.25-.94-1.84-2.12-1.84h-4.44v3.64h4.44c1.17.01 2.12-.58 2.12-1.8zM156.35 90.07V66.93h17.55V73h-10.54v2.29h10.3v6.11h-10.3V84h10.54v6.11zM175.84 84.31c2.08-.38 3.43-1.32 4-5.73l1.42-11.66h18.08V84h2v10.34h-7v-4.27h-11.49v4.27h-7zm8.71-.35h7.77V73h-4.75l-.76 6.07a8.17 8.17 0 0 1-2.26 4.93zM219 90.07v-8.85h-8.29v8.85h-7V66.93h7v8.19H219v-8.19h7v23.14zM245.16 90.07l-.83-2.71H236l-.83 2.71h-7.95l8.54-23.14h8.81l8.54 23.14zm-5-16.27l-2.29 7.46h4.58zM253.41 90.07l4.2-8.19a7.46 7.46 0 0 1-4.16-7c0-4.34 2.91-7.95 8.33-7.95h12.35v23.14h-7v-7.29h-2.53l-3.19 7.29zm13.7-13.39V73h-4.27c-1.18 0-2.29.56-2.29 1.8s1.11 1.84 2.29 1.84zM302 90.07V73h-8.29v17h-7V66.93H309v23.14zM311.52 78.51c0-7.11 5.52-12 12.66-12s12.66 4.86 12.66 12-5.52 12-12.66 12-12.66-4.88-12.66-12zm18.22 0a5.56 5.56 0 1 0-5.55 5.79 5.48 5.48 0 0 0 5.55-5.79zM358.64 66.93V73h-12.29v1.84H352c5.2 0 8 3.43 8 7.56s-2.78 7.63-8 7.63h-12.7v-23.1zM346.35 81v3h4.82c1 0 1.73-.49 1.73-1.49s-.75-1.51-1.72-1.51zM362.31 90.07V66.93h17.56V73h-10.55v2.29h10.3v6.11h-10.3V84h10.55v6.11zM381.81 84.31c2.08-.38 3.44-1.32 4-5.73l1.42-11.66h18.07V84h2v10.34h-7v-4.27h-11.48v4.27h-7zm8.71-.35h7.77V73h-4.75l-.76 6.07a8.17 8.17 0 0 1-2.26 4.93z"/><path d="M425.07 90.07l-.83-2.71h-8.33l-.83 2.71h-7.95l8.54-23.14h8.81L433 90.07zm-5-16.27l-2.29 7.46h4.58z"/></g></svg>