<svg xmlns="http://www.w3.org/2000/svg" viewBox="0 0 365.39 111.73"><title>reward-3</title><g data-name="Layer 1"><path d="M12.27 111.44l-.57-1.85H6l-.57 1.85H0l5.84-15.83h6l5.84 15.84zm-3.41-11.13l-1.57 5.11h3.13zM29.2 111.44l-5.84-8v8h-4.8V95.61h4.94l5.51 7.5v-7.5h4.8v15.84zM35.52 103.54c0-4.87 3.78-8.19 8.67-8.19s8.67 3.32 8.67 8.19-3.77 8.19-8.67 8.19-8.67-3.33-8.67-8.19zm12.46 0a3.8 3.8 0 1 0-3.8 4 3.75 3.75 0 0 0 3.82-4zM57.48 111.44V99.78h-4.25v-4.17H66.5v4.18h-4.22v11.66zM78.68 111.44v-6.05H73v6.05h-4.8V95.61H73v5.6h5.67v-5.6h4.8v15.84zM86 111.44V95.61h12v4.18h-7.16v1.57h7.05v4.18h-7.05v1.73h7.22v4.18zM108.91 111.44l-2.18-5H105v5h-4.8V95.61h8.45c3.7 0 5.7 2.47 5.7 5.44a5.1 5.1 0 0 1-2.85 4.8l2.87 5.6zm.57-10.42c0-.85-.76-1.23-1.57-1.23H105v2.49h2.92c.8 0 1.56-.38 1.56-1.28zM121.49 103.54c0-5.08 3.92-8.19 8.71-8.19a7.38 7.38 0 0 1 7 4.13l-4 2.07a3.31 3.31 0 0 0-2.92-2 4 4 0 0 0 0 7.93 4.68 4.68 0 0 0 2.47-.71v-.57h-2.94V102h7.72v6.48a9.4 9.4 0 0 1-7.24 3.21c-4.88.04-8.8-3.1-8.8-8.15zM138.73 103.54c0-4.87 3.78-8.19 8.67-8.19s8.67 3.32 8.67 8.19-3.78 8.19-8.67 8.19-8.67-3.33-8.67-8.19zm12.46 0a3.8 3.8 0 1 0-3.8 4 3.75 3.75 0 0 0 3.8-4zM166.48 111.44l-2.18-5h-1.73v5h-4.8V95.61h8.45c3.7 0 5.7 2.47 5.7 5.44a5.1 5.1 0 0 1-2.85 4.8l2.87 5.6zm.57-10.42c0-.85-.76-1.23-1.57-1.23h-2.92v2.49h2.92c.81 0 1.57-.38 1.57-1.28zM173 103.54c0-5.08 3.92-8.19 8.71-8.19a7.38 7.38 0 0 1 7 4.13l-4 2.07a3.31 3.31 0 0 0-2.92-2 4 4 0 0 0 0 7.93 4.68 4.68 0 0 0 2.47-.71v-.57h-2.94V102H189v6.48a9.4 9.4 0 0 1-7.24 3.21c-4.83.04-8.76-3.1-8.76-8.15zM191.1 111.44V95.61h12v4.18h-7.2v1.57h7.05v4.18h-7.05v1.73h7.22v4.18zM204.4 103.54c0-4.87 3.78-8.19 8.67-8.19s8.67 3.32 8.67 8.19-3.77 8.19-8.67 8.19-8.67-3.33-8.67-8.19zm12.46 0a3.8 3.8 0 1 0-3.8 4 3.75 3.75 0 0 0 3.8-4zM223.44 104.94v-9.33h4.87v9.16a3 3 0 0 0 5.91 0v-9.16h4.87v9.31c0 3.94-2.47 6.81-7.81 6.81s-7.84-2.88-7.84-6.79zM240.44 109.21l2.49-3.56a7.38 7.38 0 0 0 5.1 2c.9 0 1.76-.24 1.76-.86 0-1.52-8.83 0-8.83-6.22 0-2.68 2.23-5.25 6.58-5.25a10.45 10.45 0 0 1 6.72 2.21l-2.57 3.47a8 8 0 0 0-4.69-1.6c-.95 0-1.21.31-1.21.71 0 1.5 8.81.21 8.81 6.1 0 3.49-2.59 5.51-6.84 5.51a10.43 10.43 0 0 1-7.32-2.51zM266.39 111.44l-5.84-15.84H266l3.42 10.66 3.42-10.66h5.44l-5.84 15.84zM279.11 111.44V95.61h4.8v15.84zM285.62 103.54c0-4.89 3.75-8.19 8.71-8.19a7.39 7.39 0 0 1 7.19 4.61l-4.13 1.92a3.36 3.36 0 0 0-3.06-2.3 4 4 0 0 0 0 7.93 3.36 3.36 0 0 0 3.06-2.3l4.13 1.9a7.47 7.47 0 0 1-7.19 4.63c-4.96-.01-8.71-3.34-8.71-8.2zM306.42 111.44V99.78h-4.25v-4.17h13.27v4.18h-4.23v11.66zM315.82 103.54c0-4.87 3.78-8.19 8.67-8.19s8.67 3.32 8.67 8.19-3.77 8.19-8.67 8.19-8.67-3.33-8.67-8.19zm12.46 0a3.8 3.8 0 1 0-3.8 4 3.75 3.75 0 0 0 3.81-4zM343.58 111.44l-2.18-5h-1.73v5h-4.8V95.61h8.45c3.7 0 5.7 2.47 5.7 5.44a5.1 5.1 0 0 1-2.85 4.8l2.87 5.6zm.57-10.42c0-.85-.76-1.23-1.57-1.23h-2.92v2.49h2.92c.81 0 1.57-.38 1.57-1.28zM354.71 111.44v-6.29l-5.94-9.54h5.39l2.94 5.34 2.9-5.34h5.39l-5.89 9.54v6.29zM126.93 11.76h-3.85a24.11 24.11 0 0 1-5.32 7.35 52.74 52.74 0 0 0 11 3.15 32.8 32.8 0 0 0-5.53 7.28 46.73 46.73 0 0 1-12.88-5.11 48.74 48.74 0 0 1-11.27 4.13 32.75 32.75 0 0 0-4.2-6.09c-1 4.48-3.08 5.67-8.75 5.67-.77 0-1.61 0-2.45-.07a10.88 10.88 0 0 0-.35-2.45H74v1.82h-6.58v-7.21l-1.05.77a22.4 22.4 0 0 0-5.18-5.11 21.09 21.09 0 0 0 7.42-7.56H63V2.8h6.72V.07l9.88.56c-.07.63-.63 1-1.89 1.26v.91h4.76V.07l9.94.56c-.07.7-.56 1.12-1.82 1.33v.84h6.51v5.53h-6.51v1.54h-8.12V8.33h-4.76v1.54h-.84a1.94 1.94 0 0 1-.91.21l-.35.63h13.86l1.89-.14 4.13.49A30.94 30.94 0 0 0 102.85 0l9.59 2.87c-.21.56-.84.84-1.75.77l-.56 1.19h16.8zM118 48.58l2.1-.28 5.67 1.12c-.14.7-.35 1.4-.56 2.1-1.54 13.51-3.29 15.19-12 15.19-.91 0-1.82 0-2.87-.07a19 19 0 0 0-1-4.9l-3.85 1.54a33 33 0 0 0-3.64-6.58l6.72-2.38a30.26 30.26 0 0 1 3.5 5.32c1.89 0 2.52-1.61 3.08-5.32h-34.5v.49h-7.49l4.13 1.75a23.26 23.26 0 0 1-8.12 10.15l-7.77-5.24a20.38 20.38 0 0 0 7.6-8.4l1.89.77v-25h48.31v5.74h-18.8v1.54h17.29v4.62H100.4v1.61h17.29V47H100.4v1.61zM84.5 22.05h.28c1.89 0 2.17-1.61 2.52-6.44H72.25L71 17h13.5zm-6.72.07v-1.61H74v1.61zM80.65 66A50.26 50.26 0 0 0 79 57l8.05-1.26a44.66 44.66 0 0 1 2 8.75zm10-31.43h-10v1.54h10zm0 7.77v-1.6h-10v1.61zm-10 4.66v1.61h10V47zm12.67 18.25a42.66 42.66 0 0 0-2.52-8.12l7.56-1.68a38.79 38.79 0 0 1 2.8 7.77zm10.22-45.92a28 28 0 0 1-2.45-2.52 28.54 28.54 0 0 1-2.31 2 34.44 34.44 0 0 0-3.15-2.66 49.14 49.14 0 0 1-.63 5.76 43.52 43.52 0 0 0 8.55-2.59zm3.08-7.56a26.29 26.29 0 0 0 3.85 3.43 17.72 17.72 0 0 0 3.08-3.43zM171.52 2.66c-.07.84-.91 1.33-2.17 1.54-.14 1.12-.21 2.52-.35 4.2 1 11.55 5.6 37.52 30.1 48.94a29 29 0 0 0-7.77 8.75c-15-7.49-23-20.37-27.23-32.55C160.17 45 153 57.27 139.66 66.09A33.75 33.75 0 0 0 131 58c27.86-16.17 26.32-47.25 26.81-56.43zM260.35 12.18l5.32.35c0 .77-.07 2.17-.14 3.22-.77 31.43-1.54 42.56-4.2 46.2-3.22 4.69-7.14 4.9-17.15 4.69a23 23 0 0 0-3.18-9.72c3.71.28 7.07.35 8.82.35a3 3 0 0 0 2.73-1.33c1.75-2 2.59-11.62 3.15-34.3h-11.45a61.28 61.28 0 0 1-3.25 7.83l5-2.1c3.08 4.83 6.09 11.13 7 15.61L243.62 47c-.56-3.57-2.59-8.82-4.9-13.44l-1.61 2.31a61.72 61.72 0 0 0-5.67-5.6V55.8h-17.16v4.55H205V11.83h7A80.74 80.74 0 0 0 214.28.07l12.32 2.59c-.28.63-.91 1-2.1 1-.77 2.45-1.82 5.46-2.94 8.12h9.87v14.47c3.78-6.51 6.37-16.38 7.7-26L251 2.87a1.79 1.79 0 0 1-2 1c-.56 2.8-1.19 5.6-1.89 8.33h11.06zm-38.43 17v-8.32h-7.63v8.33zm-7.63 17.57h7.63V38h-7.63zM273.29 53.49a7 7 0 0 1 7.07-7.35c4.13 0 7.07 3 7.07 7.35s-2.73 7.28-7.07 7.28a6.93 6.93 0 0 1-7.07-7.28zm11.9-11.55h-9.66l-1.68-36.06h13z"/></g></svg>