<svg xmlns="http://www.w3.org/2000/svg" viewBox="0 0 330.98 45.59"><title>reward_2</title><g data-name="Layer 1"><path d="M14 24.34L8.58 15.9l-1.33 1.8v6.64H0V.39h7.25v9l6.28-9h8.87l-9 11.13 9.44 12.81z"/><path d="M21.35 12.38C21.35 5 27.06 0 34.46 0s13.1 5 13.1 12.38-5.71 12.38-13.1 12.38-13.11-5.02-13.11-12.38zm18.85 0a5.75 5.75 0 1 0-11.49 0 5.75 5.75 0 1 0 11.49 0zM66.22 24.34l-8.83-12.13v12.13h-7.25V.39h7.46l8.33 11.34V.39h7.25v23.95zM75.76 12.38C75.76 4.7 81.69 0 88.94 0a11.16 11.16 0 0 1 10.52 6.25l-6.1 3.12a5 5 0 0 0-4.41-3 5.73 5.73 0 0 0-5.82 6 5.72 5.72 0 0 0 5.82 6 7.08 7.08 0 0 0 3.73-1.08v-.86h-4.46v-6.31h11.67v9.8a14.21 14.21 0 0 1-10.95 4.85c-7.25 0-13.18-4.77-13.18-12.39zM116.29 24.34L113 16.8h-2.62v7.54h-7.25V.39h12.78c5.6 0 8.61 3.73 8.61 8.22a7.72 7.72 0 0 1-4.31 7.25l4.34 8.47zm.86-15.76c0-1.29-1.15-1.87-2.37-1.87h-4.41v3.77h4.41c1.22 0 2.37-.57 2.37-1.9zM143.42 24.34l-.86-2.8h-8.61l-.86 2.8h-8.22L133.69.39h9.12l8.83 23.94zM138.25 7.5l-2.37 7.72h4.74zM155.91 24.34V6.71h-6.43V.39h20.07v6.32h-6.39v17.63zM172.13 14.5V.39h7.36v13.86c0 2.3 1.51 4.13 4.49 4.13s4.45-1.83 4.45-4.13V.39h7.36v14.08c0 6-3.73 10.3-11.81 10.3s-11.85-4.34-11.85-10.27zM199.66 24.34V.39h7.25V18H216v6.32zM218.89 24.34V.39h7.25v23.95zM230 24.34V.39h18.16v6.32h-10.89v2.37h10.66v6.32h-10.66V18h10.91v6.32zM264.58 24.34l-3.3-7.54h-2.62v7.54h-7.25V.39h12.78c5.6 0 8.61 3.73 8.61 8.22a7.72 7.72 0 0 1-4.31 7.25l4.34 8.47zm.86-15.76c0-1.29-1.15-1.87-2.37-1.87h-4.41v3.77h4.41c1.23 0 2.38-.57 2.38-1.9zM275.74 24.34V.39h18.16v6.32H283v2.37h10.66v6.32H283V18h10.91v6.32zM313.21 24.34l-8.83-12.13v12.13h-7.25V.39h7.47l8.33 11.34V.39h7.25v23.95zM324.27 15.44l-1-15H331l-.9 15zm-.9 5.49a3.81 3.81 0 1 1 3.8 3.8 3.86 3.86 0 0 1-3.8-3.8zM21.41 42.78v-9.37H18v-3.36h10.66v3.36h-3.4v9.37zM37.38 42.78l-.46-1.49h-4.57l-.46 1.49h-4.37l4.7-12.73h4.85l4.7 12.73zm-2.75-9l-1.26 4.1h2.53zM49.86 42.78L47 38.3l-.71 1v3.53h-3.85V30.05h3.86v4.77l3.34-4.77h4.71L49.54 36l5 6.81zM55.24 42.78V30.05h9.66v3.36h-5.8v1.26h5.67V38H59.1v1.39h5.8v3.36zM74.21 42.78v-9.37H70.8v-3.36h10.66v3.36h-3.4v9.37zM81.77 36.43c0-3.91 3-6.58 7-6.58s7 2.67 7 6.58-3 6.58-7 6.58-7-2.67-7-6.58zm10 0a3.06 3.06 0 1 0-3.05 3.19 3 3 0 0 0 3.07-3.19zM97.07 37.55v-7.5H101v7.37a2.38 2.38 0 0 0 4.75 0v-7.37h3.91v7.48c0 3.17-2 5.48-6.28 5.48s-6.31-2.31-6.31-5.46zM118.71 42.78l-1.76-4h-1.39v4h-3.86V30.05h6.79a4.23 4.23 0 0 1 4.58 4.37 4.1 4.1 0 0 1-2.29 3.85l2.31 4.5zm.46-8.38c0-.69-.61-1-1.26-1h-2.35v2h2.35c.65.02 1.26-.29 1.26-1zM136.51 42.78l-1.76-4h-1.39v4h-3.86V30.05h6.79a4.23 4.23 0 0 1 4.58 4.37 4.1 4.1 0 0 1-2.29 3.85l2.31 4.5zm.49-8.38c0-.69-.61-1-1.26-1h-2.35v2h2.35c.62.02 1.26-.29 1.26-1zM142.45 42.78V30.05h9.66v3.36h-5.8v1.26H152V38h-5.7v1.39h5.8v3.36zM163.54 42.78l-1.64-7.21-1.64 7.21h-4l-3.65-12.73h4.31l1.64 7.79 1.93-7.79h2.9l1.93 7.79 1.62-7.79h4.33l-3.65 12.73zM179.75 42.78l-.46-1.49h-4.58l-.46 1.49h-4.37l4.7-12.73h4.85l4.7 12.73zm-2.75-9l-1.26 4.1h2.52zM191.81 42.78l-1.76-4h-1.39v4h-3.86V30.05h6.79a4.23 4.23 0 0 1 4.58 4.37 4.1 4.1 0 0 1-2.29 3.85l2.31 4.5zm.46-8.38c0-.69-.61-1-1.26-1h-2.35v2H191c.66.02 1.27-.29 1.27-1zM197.75 42.78V30.05h5.69c4 0 7 2.29 7 6.36s-3 6.37-7 6.37zm8.76-6.37a2.78 2.78 0 0 0-3.05-3h-1.86v6h1.83a2.94 2.94 0 0 0 3.08-3zM212.84 45.59l-1.39-1.13a3.78 3.78 0 0 0 1.74-1.83 1.49 1.49 0 0 1-.5.08 1.67 1.67 0 0 1-1.69-1.78 2 2 0 0 1 2-2 2.26 2.26 0 0 1 2.21 2.46 5.14 5.14 0 0 1-2.37 4.2zM232.9 42.78v-7.65l-2.84 7.65h-1.72l-2.84-7.65v7.65h-3.86V30.05H227l2.23 6.11 2.23-6.11h5.32v12.73zM247.3 42.78l-.46-1.49h-4.58l-.46 1.49h-4.37l4.7-12.73H247l4.7 12.73zm-2.75-9l-1.26 4.1h2.52zM252.36 42.78V30.05H262v3.36h-5.8v1.26h5.67V38h-5.67v1.39h5.8v3.36zM262.76 41l2-2.86a5.93 5.93 0 0 0 4.1 1.64c.73 0 1.41-.19 1.41-.69 0-1.22-7.1 0-7.1-5 0-2.16 1.79-4.22 5.29-4.22a8.4 8.4 0 0 1 5.4 1.77l-2.06 2.73a6.43 6.43 0 0 0-3.74-1.26c-.76 0-1 .25-1 .57 0 1.2 7.08.17 7.08 4.9 0 2.81-2.08 4.43-5.5 4.43a8.39 8.39 0 0 1-5.88-2.01zM277.78 42.78v-9.37h-3.42v-3.36H285v3.36h-3.4v9.37zM293.41 42.78l-1.76-4h-1.39v4h-3.86V30.05h6.79a4.23 4.23 0 0 1 4.58 4.37 4.1 4.1 0 0 1-2.29 3.85l2.31 4.5zm.46-8.38c0-.69-.61-1-1.26-1h-2.35v2h2.35c.64.02 1.25-.29 1.25-1zM298.65 36.43c0-3.91 3-6.58 7-6.58s7 2.67 7 6.58-3 6.58-7 6.58-7-2.67-7-6.58zm10 0a3.06 3.06 0 1 0-3.05 3.19 3 3 0 0 0 3.07-3.19z"/></g></svg>