<svg xmlns="http://www.w3.org/2000/svg" viewBox="0 0 577.4 85.48"><title>reward</title><g data-name="Layer 1"><path d="M24.36 42.46L15 27.74l-2.32 3.13v11.59H0V.69h12.65v15.65L23.61.69h15.47L23.29 20.1l16.47 22.36z"/><path d="M37.25 21.6C37.25 8.77 47.21 0 60.11 0S83 8.77 83 21.6 73 43.2 60.14 43.2s-22.89-8.76-22.89-21.6zm32.88 0c0-5.82-3.94-10.46-10-10.46s-10 4.63-10 10.46 3.95 10.46 10 10.46 10-4.63 10-10.46zM115.52 42.46l-15.4-21.17v21.17H87.47V.69h13L115 20.48V.69h12.65v41.77zM132.17 21.6c0-13.4 10.33-21.6 23-21.6 10 0 15.72 5.51 18.35 10.9l-10.65 5.45a8.72 8.72 0 0 0-7.7-5.2c-6.07 0-10.15 4.63-10.15 10.46s4.07 10.46 10.15 10.46a12.34 12.34 0 0 0 6.51-1.88v-1.5h-7.78v-11h20.35v17.1a24.8 24.8 0 0 1-19.1 8.45c-12.64-.03-22.98-8.3-22.98-21.64zM202.86 42.46l-5.76-13.15h-4.57v13.15h-12.65V.69h22.29c9.77 0 15 6.51 15 14.34a13.46 13.46 0 0 1-7.51 12.65l7.58 14.78zM204.37 15c0-2.25-2-3.25-4.13-3.25h-7.7v6.57h7.7c2.12-.03 4.13-1.03 4.13-3.32zM250.2 42.46l-1.5-4.88h-15l-1.5 4.88h-14.38L233.23.69h15.91l15.41 41.77zm-9-29.37L237 26.55h8.27zM272 42.46V11.71h-11.22V.69h35v11h-11.15v30.77zM300.28 25.3V.69h12.84v24.17c0 4 2.63 7.2 7.83 7.2s7.76-3.19 7.76-7.2V.69h12.84v24.55c0 10.4-6.51 18-20.6 18s-20.67-7.61-20.67-17.94zM348.31 42.46V.69H361v30.75h15.8v11zM381.87 42.46V.69h12.65v41.77zM401.28 42.46V.69H433v11h-19v4.13h18.6v11H414v4.57h19v11zM461.57 42.46l-5.76-13.15h-4.57v13.15h-12.65V.69h22.29c9.77 0 15 6.51 15 14.34a13.46 13.46 0 0 1-7.51 12.65L476 42.46zM463.08 15c0-2.25-2-3.25-4.13-3.25h-7.7v6.57h7.7c2.12-.03 4.13-1.03 4.13-3.32zM481 42.46V.69h31.69v11h-19v4.13h18.6v11h-18.6v4.57h19v11zM546.41 42.46L531 21.29v21.17h-12.64V.69h13l14.53 19.79V.69h12.65v41.77zM565.69 26.93L564 .69h13.4l-1.57 26.24zm-1.57 9.58a6.64 6.64 0 1 1 6.64 6.64 6.74 6.74 0 0 1-6.63-6.64zM71.55 81.27V67.19h-5.13v-5h16v5h-5.1v14.08zM95.55 81.27L94.86 79H88l-.69 2.24h-6.58l7.05-19.12h7.28l7.05 19.12zm-4.13-13.45L89.53 74h3.78zM114.3 81.27l-4.3-6.74-1.07 1.47v5.3h-5.79V62.14h5.79v7.17l5-7.17H121L113.81 71l7.54 10.24zM122.38 81.27V62.14h14.51v5h-8.72v1.89h8.52v5h-8.52v2.09h8.72v5zM151.88 81.27v-7.6l-7.17-11.53h6.51l3.56 6.45 3.5-6.45h6.51l-7.11 11.53v7.6zM163.63 71.72c0-5.88 4.56-9.89 10.46-9.89s10.47 4 10.47 9.89-4.56 9.89-10.47 9.89-10.46-4.01-10.46-9.89zm15.05 0a4.59 4.59 0 1 0-4.59 4.79 4.53 4.53 0 0 0 4.59-4.79zM186.62 73.41V62.14h5.88v11.07c0 1.83 1.2 3.3 3.58 3.3a3.2 3.2 0 0 0 3.56-3.3V62.14h5.88v11.24c0 4.76-3 8.23-9.43 8.23s-9.47-3.47-9.47-8.2zM219.13 81.27l-2.64-6h-2.09v6h-5.79V62.14h10.21c4.47 0 6.88 3 6.88 6.57a6.16 6.16 0 0 1-3.44 5.79l3.47 6.77zm.69-12.59c0-1-.92-1.49-1.89-1.49h-3.53v3h3.53c.97.01 1.89-.45 1.89-1.51zM245.87 81.27l-2.64-6h-2.09v6h-5.79V62.14h10.21c4.47 0 6.88 3 6.88 6.57A6.16 6.16 0 0 1 249 74.5l3.47 6.77zm.69-12.59c0-1-.92-1.49-1.89-1.49h-3.53v3h3.53c.98.01 1.89-.45 1.89-1.51zM254.79 81.27V62.14h14.51v5h-8.72v1.89h8.52v5h-8.52v2.09h8.72v5zM286.47 81.27L284 70.43l-2.47 10.84h-6.08L270 62.14h6.48l2.47 11.7 2.9-11.7h4.36l2.9 11.7 2.44-11.7H298l-5.48 19.12zM310.83 81.27l-.68-2.27h-6.88l-.69 2.24H296l7.05-19.12h7.28l7.05 19.12zm-4.13-13.45L304.81 74h3.78zM329 81.27l-2.64-6h-2.09v6h-5.79V62.14h10.21c4.47 0 6.88 3 6.88 6.57a6.16 6.16 0 0 1-3.44 5.79l3.47 6.77zm.69-12.59c0-1-.92-1.49-1.89-1.49h-3.53v3h3.53c.92.01 1.84-.45 1.84-1.51zM337.86 81.27V62.14h8.54c6 0 10.49 3.44 10.49 9.55s-4.47 9.58-10.46 9.58zM351 71.69c0-2.58-1.49-4.5-4.59-4.5h-2.78v9h2.75a4.42 4.42 0 0 0 4.62-4.5zM360.54 85.48l-2.09-1.69a5.68 5.68 0 0 0 2.61-2.79 2.24 2.24 0 0 1-.75.12 2.51 2.51 0 0 1-2.49-2.67 3 3 0 0 1 3-3 3.4 3.4 0 0 1 3.33 3.7 7.72 7.72 0 0 1-3.61 6.33zM390.67 81.27v-11.5l-4.27 11.5h-2.58l-4.27-11.5v11.5h-5.79V62.14h8l3.35 9.17 3.35-9.17h8v19.13zM412.31 81.27l-.69-2.27h-6.88l-.69 2.24h-6.57l7.05-19.12h7.28l7.05 19.12zm-4.13-13.45L406.29 74h3.78zM419.91 81.27V62.14h14.51v5h-8.72v1.89h8.52v5h-8.52v2.09h8.72v5zM435.53 78.57l3-4.3a8.91 8.91 0 0 0 6.16 2.47c1.09 0 2.12-.29 2.12-1 0-1.83-10.67 0-10.67-7.51 0-3.24 2.7-6.34 7.94-6.34a12.62 12.62 0 0 1 8.11 2.67l-3.1 4.1a9.66 9.66 0 0 0-5.62-1.89c-1.15 0-1.46.37-1.46.86 0 1.81 10.64.26 10.64 7.37 0 4.21-3.12 6.65-8.26 6.65-4.04-.04-6.82-1.24-8.86-3.08zM458.09 81.27V67.19H453v-5h16v5h-5.1v14.08zM481.57 81.27l-2.64-6h-2.09v6H471V62.14h10.21c4.47 0 6.88 3 6.88 6.57a6.16 6.16 0 0 1-3.44 5.79l3.47 6.77zm.69-12.59c0-1-.92-1.49-1.89-1.49h-3.53v3h3.53c.97.01 1.89-.45 1.89-1.51zM489.45 71.72c0-5.88 4.56-9.89 10.46-9.89s10.47 4 10.47 9.89-4.56 9.89-10.47 9.89-10.46-4.01-10.46-9.89zm15.05 0a4.59 4.59 0 1 0-4.59 4.79 4.53 4.53 0 0 0 4.59-4.79z"/></g></svg>