<svg xmlns="http://www.w3.org/2000/svg" viewBox="0 0 1018.63 482.41"><defs><style>.cls-1{fill:none;stroke:#000;stroke-miterlimit:10;stroke-width:10px}</style></defs><title>layer-3</title><g id="Layer_2" data-name="Layer 2"><g id="Layer_1-2" data-name="Layer 1"><path class="cls-1" d="M3.54 308.64l170.23 170.24M3.54 173.77l305.1 305.11M3.54 38.89l439.98 439.99M103.05 3.54l475.34 475.34M237.93 3.54l475.34 475.34M372.8 3.54l475.34 475.34M507.68 3.54l475.34 475.34M642.55 3.54l372.55 372.54M777.43 3.54l237.67 237.67M912.3 3.54l102.8 102.79M1015.1 376.08l-102.8 102.8M1015.1 241.21L777.43 478.88M1015.1 106.33L642.55 478.88M983.02 3.54L507.68 478.88M848.14 3.54L372.8 478.88M713.27 3.54L237.93 478.88M578.39 3.54L103.05 478.88M443.52 3.54L3.54 443.52M308.64 3.54L3.54 308.64M173.77 3.54L3.54 173.77M38.89 3.54L3.54 38.89"/></g></g></svg>