<svg xmlns="http://www.w3.org/2000/svg" width="506.4" height="217.9" viewBox="0 0 506.4 217.9"><path d="M.2 119.8V1.9h52.6c37.1 0 64.7 21.2 64.7 58.8s-27.6 59-64.5 59H.2zm81.1-59C81.3 44.9 72.1 33 53 33H35.9v55.7h17c17.8 0 28.4-13.1 28.4-27.9zM123.9 61c0-36.2 28.1-61 64.5-61s64.5 24.7 64.5 61-28.1 61-64.5 61c-36.4-.1-64.5-24.8-64.5-61zm92.7 0c0-16.4-11.1-29.5-28.3-29.5-17.1 0-28.3 13.1-28.3 29.5s11.1 29.5 28.3 29.5c17.2 0 28.3-13.1 28.3-29.5zM259.2 61c0-36.2 28.1-61 64.5-61s64.5 24.7 64.5 61-28.1 61-64.5 61c-36.4-.1-64.5-24.8-64.5-61zm92.8 0c0-16.4-11.1-29.5-28.3-29.5-17.1 0-28.3 13.1-28.3 29.5s11.1 29.5 28.3 29.5c17.1 0 28.3-13.1 28.3-29.5zM465.7 119.8l-16.3-37.1h-12.9v37.1h-35.7V1.9h62.9c27.6 0 42.4 18.4 42.4 40.5 0 20.3-11.8 31.1-21.2 35.7l21.4 41.7h-40.6zm4.3-77.6c0-6.4-5.7-9.2-11.7-9.2h-21.7v18.6h21.7c6 0 11.7-2.8 11.7-9.4zM74.8 216.4v-50.8l-18.9 50.8H44.5l-18.9-50.8v50.8H0v-84.6h35.4l14.8 40.6L65 131.8h35.4v84.6H74.8zM170.5 216.4l-3-9.9H137l-3 9.9h-29l31.2-84.6h32.2l31.2 84.6h-29.1zm-18.2-59.5l-8.4 27.3h16.7l-8.3-27.3zM197.6 204.5l13.3-19c6.3 6.1 15.8 10.9 27.3 10.9 4.8 0 9.4-1.3 9.4-4.6 0-8.1-47.2.1-47.2-33.2 0-14.3 11.9-28 35.1-28 13.8 0 26.2 3.9 35.9 11.8l-13.7 18.1c-7.4-5.6-16.9-8.4-24.8-8.4-5.1 0-6.5 1.6-6.5 3.8 0 8 47 1.1 47 32.6 0 18.6-13.8 29.4-36.5 29.4-18 0-30.3-5.3-39.3-13.4zM297.4 216.4v-62.2h-22.7v-22.3h70.9v22.3H323v62.2h-25.6zM354.7 216.4v-84.6h64.1v22.3h-38.5v8.4H418v22.3h-37.7v9.3h38.5v22.3h-64.1zM476.8 216.4l-11.7-26.6h-9.3v26.6h-25.6v-84.6h45.1c19.8 0 30.4 13.2 30.4 29 0 14.6-8.5 22.3-15.2 25.6l15.3 29.9h-29zm3-55.7c0-4.6-4.1-6.6-8.4-6.6h-15.6v13.3h15.6c4.4 0 8.4-2 8.4-6.7z"/></svg>