<svg xmlns="http://www.w3.org/2000/svg" viewBox="0 0 321.58 43.53"><title>logo_1</title><g data-name="Layer 1"><path d="M11.29 42.77v-31H0V.69h35.26V11.8H24v31zM67.62 42.77V26.68H52.54v16.09H39.8V.69h12.74v14.89h15.08V.69h12.74v42.08zM87.18 42.77V.69h31.92V11.8H99.92V16h18.73v11.1H99.92v4.6h19.18v11.1zM140.85 42.77V.69h18.8c13.25 0 23.09 7.57 23.09 21s-9.84 21.07-23 21.07zm29-21.07c0-5.68-3.28-9.9-10.09-9.9h-6.16v19.87h6.06a9.72 9.72 0 0 0 10.15-9.97zM185 21.76C185 8.83 195 0 208 0s23 8.83 23 21.76-10 21.76-23 21.76-23-8.83-23-21.76zm33.12 0c0-5.87-4-10.53-10.09-10.53s-10.09 4.67-10.09 10.53 4 10.53 10.09 10.53 10.1-4.66 10.1-10.53zM233.33 21.76c0-12.93 10-21.76 23-21.76s23 8.83 23 21.76-10 21.76-23 21.76-23-8.83-23-21.76zm33.12 0c0-5.87-4-10.53-10.09-10.53s-10.09 4.67-10.09 10.53 4 10.53 10.09 10.53 10.09-4.66 10.09-10.53zM307.07 42.77l-5.8-13.25h-4.6v13.25h-12.75V.69h22.46c9.84 0 15.14 6.56 15.14 14.45a13.56 13.56 0 0 1-7.57 12.74l7.63 14.89zm1.51-27.69c0-2.27-2-3.28-4.16-3.28h-7.76v6.62h7.76c2.14 0 4.16-1.01 4.16-3.34z"/></g></svg>