<svg xmlns="http://www.w3.org/2000/svg" viewBox="0 0 259.76 47.71"><title>reward_1</title><g data-name="Layer 1"><path d="M59 18.91V5.22h-5V.31h15.58v4.91h-5v13.7zM81.77 18.91l-.67-2.18h-6.69l-.67 2.18h-6.39L74.21.31h7.09l6.86 18.6zm-4-13.08l-1.84 6h3.67zM99.45 18.91l-4.18-6.55-1 1.39v5.16H88.6V.31h5.63v7l4.88-7H106L99 9l7.34 10zM106.76 18.91V.31h14.11v4.91h-8.48v1.84h8.28V12h-8.28v2h8.48v4.91zM134.34 18.91v-7.39l-7-11.21h6.33l3.46 6.28 3.4-6.28h6.33L140 11.52v7.39zM145.21 9.62c0-5.72 4.44-9.62 10.19-9.62s10.18 3.9 10.18 9.62-4.43 9.62-10.18 9.62-10.19-3.9-10.19-9.62zm14.64 0a4.47 4.47 0 1 0-8.93 0 4.47 4.47 0 1 0 8.93 0zM167 11.27V.31h5.72v10.76c0 1.79 1.17 3.21 3.49 3.21a3.12 3.12 0 0 0 3.46-3.21V.31h5.72v10.93c0 4.63-2.9 8-9.18 8S167 15.87 167 11.27zM198.09 18.91l-2.57-5.86h-2v5.86h-5.63V.31h9.93c4.35 0 6.69 2.9 6.69 6.39a6 6 0 0 1-3.35 5.63l3.38 6.58zm.67-12.25c0-1-.89-1.45-1.84-1.45h-3.43v2.93h3.43c.95 0 1.84-.44 1.84-1.47zM10.24 43.61l-2.57-5.86h-2v5.86H0V25h9.93c4.35 0 6.69 2.9 6.69 6.39A6 6 0 0 1 13.28 37l3.38 6.58zm.67-12.25c0-1-.89-1.45-1.84-1.45H5.63v2.93h3.43c.94.01 1.85-.44 1.85-1.47zM18.35 43.61V25h14.11v4.91H24v1.84h8.28v4.91H24v2h8.48v4.91zM48.61 43.61l-2.4-10.54-2.4 10.54H37.9L32.57 25h6.3l2.4 11.38L44.09 25h4.24l2.82 11.38L53.52 25h6.33l-5.33 18.6zM71.76 43.61l-.67-2.18H64.4l-.67 2.18h-6.39L64.2 25h7.08l6.86 18.6zm-4-13.08l-1.84 6h3.68zM88.83 43.61l-2.57-5.86h-2v5.86h-5.67V25h9.93c4.35 0 6.69 2.9 6.69 6.39A6 6 0 0 1 91.87 37l3.38 6.58zm.67-12.25c0-1-.89-1.45-1.84-1.45h-3.44v2.93h3.43c.95.01 1.85-.44 1.85-1.47zM96.94 43.61V25h8.31c5.86 0 10.21 3.35 10.21 9.29s-4.35 9.32-10.18 9.32zm12.8-9.32c0-2.51-1.45-4.38-4.46-4.38h-2.71v8.79h2.68a4.3 4.3 0 0 0 4.49-4.4zM118.44 47.71l-2-1.65a5.52 5.52 0 0 0 2.54-2.68 2.16 2.16 0 0 1-.73.11 2.44 2.44 0 0 1-2.43-2.59 2.94 2.94 0 0 1 2.9-2.93 3.3 3.3 0 0 1 3.24 3.6 7.51 7.51 0 0 1-3.52 6.14zM146.64 43.61V32.43l-4.16 11.19H140l-4.16-11.19v11.18h-5.63V25H138l3.26 8.93 3.23-8.93h7.78v18.6zM167.14 43.61l-.67-2.18h-6.69l-.67 2.18h-6.39L159.58 25h7.08l6.86 18.6zm-4-13.08l-1.84 6h3.7zM174 43.61V25h14.11v4.91h-8.51v1.84h8.28v4.91h-8.28v2h8.48v4.91zM188.61 41l2.93-4.18a8.67 8.67 0 0 0 6 2.4c1.06 0 2.06-.28 2.06-1 0-1.79-10.38 0-10.38-7.31 0-3.15 2.62-6.16 7.73-6.16a12.28 12.28 0 0 1 7.89 2.59l-3 4a9.4 9.4 0 0 0-5.47-1.84c-1.12 0-1.42.36-1.42.84 0 1.76 10.35.25 10.35 7.17 0 4.1-3 6.47-8 6.47a12.26 12.26 0 0 1-8.69-2.98z"/><path d="M210 43.61V29.92h-5V25h15.6v4.91h-5v13.7zM232.29 43.61l-2.57-5.86h-2v5.86H222V25h10c4.35 0 6.69 2.9 6.69 6.39a6 6 0 0 1-3.36 5.61l3.38 6.58zm.71-12.24c0-1-.89-1.45-1.84-1.45h-3.43v2.93h3.43c.9 0 1.84-.45 1.84-1.48zM239.39 34.32c0-5.72 4.44-9.62 10.18-9.62s10.18 3.9 10.18 9.62-4.43 9.62-10.18 9.62-10.18-3.94-10.18-9.62zm14.64 0a4.47 4.47 0 1 0-8.93 0 4.47 4.47 0 1 0 8.93 0z"/></g></svg>