<svg xmlns="http://www.w3.org/2000/svg" viewBox="0 0 326 261.84"><defs><style>.cls-1{fill:#fff;stroke:#000;stroke-miterlimit:10;stroke-width:10px;}.cls-2{fill:none;}</style></defs><title>chest</title><g id="Layer_2" data-name="Layer 2"><g id="Layer_1-2" data-name="Layer 1"><g id="chest"><rect class="cls-1" x="5" y="71.84" width="316" height="185"/><rect class="cls-1" x="39" y="107.84" width="248" height="113"/><g id="undertop"><path class="cls-1" d="M28.44,5H297.56A23.44,23.44,0,0,1,321,28.44v43.4a0,0,0,0,1,0,0H5a0,0,0,0,1,0,0V28.44A23.44,23.44,0,0,1,28.44,5Z"/><path class="cls-1" d="M28.44,5H39a0,0,0,0,1,0,0V71.84a0,0,0,0,1,0,0H5a0,0,0,0,1,0,0V28.44A23.44,23.44,0,0,1,28.44,5Z"/><path class="cls-1" d="M287,5h10.56A23.44,23.44,0,0,1,321,28.44v43.4a0,0,0,0,1,0,0H287a0,0,0,0,1,0,0V5A0,0,0,0,1,287,5Z"/></g><rect id="lock" class="cls-1" x="137" y="47.23" width="52" height="60.62"/><g id="reward-1"><polygon id="reward-1-svg" class="cls-1" points="100.42 179.06 73.37 151.6 108.23 147.01 100.42 179.06"/><rect class="cls-2" x="58.64" y="129.67" width="68.19" height="68.19"/></g><g id="reward-2"><polygon id="reward-2-2" data-name="reward-2" class="cls-1" points="163.98 181.88 146.79 168.22 153.08 149.65 173.04 147.5 187.62 165.92 163.98 181.88"/><rect class="cls-2" x="130.11" y="129.67" width="68.19" height="68.19"/></g><g id="reward-3"><polygon id="reward-3-svg" class="cls-1" points="246.63 175.11 235.64 182.41 224.66 175.11 224.66 149.58 235.64 142.27 246.63 149.58 246.63 175.11"/><rect class="cls-2" x="201.55" y="129.67" width="68.19" height="68.19"/></g></g></g></g></svg>