<svg xmlns="http://www.w3.org/2000/svg" viewBox="0 0 312.06 83.67"><title>final-reward</title><g id="Layer_2" data-name="Layer 2"><g id="Layer_1-2" data-name="Layer 1"><path d="M30.87,47.46V29.61H14.14V47.46H0V.77H14.14V17.29H30.87V.77H45v46.7Z"/><path d="M50,24.15C50,9.8,61.18,0,75.6,0s25.55,9.8,25.55,24.15S90,48.3,75.6,48.3,50,38.5,50,24.15Zm36.75,0c0-6.51-4.41-11.69-11.2-11.69S64.4,17.64,64.4,24.15s4.41,11.69,11.2,11.69S86.8,30.66,86.8,24.15Z"/><path d="M103.67,24.15C103.67,9.8,114.8,0,129.22,0s25.55,9.8,25.55,24.15S143.64,48.3,129.22,48.3,103.67,38.5,103.67,24.15Zm36.75,0c0-6.51-4.41-11.69-11.2-11.69S118,17.64,118,24.15s4.41,11.69,11.2,11.69S140.42,30.66,140.42,24.15Z"/><path d="M185.5,47.46l-6.44-14.7h-5.11v14.7H159.81V.77h24.92c10.92,0,16.8,7.28,16.8,16,0,8.05-4.69,12.32-8.4,14.14l8.47,16.52Zm1.68-30.73c0-2.52-2.24-3.64-4.62-3.64h-8.61v7.35h8.61C184.94,20.44,187.18,19.32,187.18,16.73Z"/><path d="M238.42,47.46,236.74,42h-16.8l-1.68,5.46h-16L219.45.77h17.78l17.22,46.7ZM228.34,14.63l-4.62,15.05H233Z"/><path d="M264.53,47.46V28.91L247,.77h15.89l8.68,15.75L280.14.77H296L278.67,28.91V47.46Z"/><path d="M299,30.1,297.08.77h15L310.31,30.1Zm-1.75,10.71a7.42,7.42,0,1,1,7.42,7.42A7.53,7.53,0,0,1,297.22,40.81Z"/><path d="M28.37,83.37V76.61L22,66.36h5.79l3.16,5.74,3.11-5.74h5.79L33.52,76.61v6.76Z"/><path d="M38.82,74.88c0-5.23,4.05-8.8,9.31-8.8s9.31,3.57,9.31,8.8-4.05,8.8-9.31,8.8S38.82,80.1,38.82,74.88Zm13.39,0a4.08,4.08,0,1,0-4.08,4.26A4,4,0,0,0,52.21,74.88Z"/><path d="M59.27,76.38v-10h5.23V76.2a3.18,3.18,0,0,0,6.35,0V66.36h5.23v10c0,4.23-2.65,7.32-8.39,7.32S59.27,80.59,59.27,76.38Z"/><path d="M98.29,83.37,96.1,73.73l-2.19,9.64H88.5l-4.87-17H89.4l2.19,10.4,2.58-10.4H98l2.58,10.4,2.17-10.4h5.79l-4.87,17Z"/><path d="M108.21,74.88c0-5.23,4.05-8.8,9.31-8.8s9.31,3.57,9.31,8.8-4.05,8.8-9.31,8.8S108.21,80.1,108.21,74.88Zm13.39,0a4.08,4.08,0,1,0-4.08,4.26A4,4,0,0,0,121.59,74.88Z"/><path d="M140.07,83.37l-6.27-8.62v8.62h-5.15v-17H134l5.92,8.06V66.36H145v17Z"/><path d="M157.92,83.37V70.85h-4.56V66.36H167.6v4.49h-4.54V83.37Z"/><path d="M180.68,83.37v-6.5h-6.09v6.5h-5.15v-17h5.15v6h6.09v-6h5.15v17Z"/><path d="M188.58,83.37v-17h5.15v17Z"/><path d="M195.18,81l2.68-3.83a7.92,7.92,0,0,0,5.48,2.19c1,0,1.89-.25,1.89-.92,0-1.63-9.49,0-9.49-6.68,0-2.88,2.4-5.63,7.06-5.63A11.22,11.22,0,0,1,210,68.48l-2.75,3.65a8.59,8.59,0,0,0-5-1.68c-1,0-1.3.33-1.3.76,0,1.61,9.46.23,9.46,6.55,0,3.75-2.78,5.92-7.34,5.92A11.2,11.2,0,0,1,195.18,81Z"/><path d="M222.25,83.37V70.85h-4.56V66.36h14.25v4.49H227.4V83.37Z"/><path d="M233.77,83.37v-17h12.9v4.49h-7.75v1.68h7.57V77h-7.57v1.86h7.75v4.49Z"/><path d="M259.42,83.37l-3.11-5.2-3.11,5.2h-6.07l5.69-8.72-5.3-8.29h6l2.75,4.84,2.7-4.84h6.09l-5.3,8.26,5.69,8.75Z"/><path d="M270,83.37V70.85h-4.56V66.36h14.25v4.49H275.2V83.37Z"/><path d="M281.72,77,281,66.36h5.46L285.85,77Zm-.64,3.9a2.7,2.7,0,1,1,2.7,2.7A2.74,2.74,0,0,1,281.08,80.95Z"/></g></g></svg>