<svg xmlns="http://www.w3.org/2000/svg" viewBox="0 0 1018.63 482.41"><defs><style>.cls-1{fill:none;stroke:#000;stroke-miterlimit:10;stroke-width:10px;}</style></defs><title>layer-3</title><g id="Layer_2" data-name="Layer 2"><g id="Layer_1-2" data-name="Layer 1"><line class="cls-1" x1="3.54" y1="308.64" x2="173.77" y2="478.88"/><line class="cls-1" x1="3.54" y1="173.77" x2="308.64" y2="478.88"/><line class="cls-1" x1="3.54" y1="38.89" x2="443.52" y2="478.88"/><line class="cls-1" x1="103.05" y1="3.54" x2="578.39" y2="478.88"/><line class="cls-1" x1="237.93" y1="3.54" x2="713.27" y2="478.88"/><line class="cls-1" x1="372.8" y1="3.54" x2="848.14" y2="478.88"/><line class="cls-1" x1="507.68" y1="3.54" x2="983.02" y2="478.88"/><line class="cls-1" x1="642.55" y1="3.54" x2="1015.1" y2="376.08"/><line class="cls-1" x1="777.43" y1="3.54" x2="1015.1" y2="241.21"/><line class="cls-1" x1="912.3" y1="3.54" x2="1015.1" y2="106.33"/><line class="cls-1" x1="1015.1" y1="376.08" x2="912.3" y2="478.88"/><line class="cls-1" x1="1015.1" y1="241.21" x2="777.43" y2="478.88"/><line class="cls-1" x1="1015.1" y1="106.33" x2="642.55" y2="478.88"/><line class="cls-1" x1="983.02" y1="3.54" x2="507.68" y2="478.88"/><line class="cls-1" x1="848.14" y1="3.54" x2="372.8" y2="478.88"/><line class="cls-1" x1="713.27" y1="3.54" x2="237.93" y2="478.88"/><line class="cls-1" x1="578.39" y1="3.54" x2="103.05" y2="478.88"/><line class="cls-1" x1="443.52" y1="3.54" x2="3.54" y2="443.52"/><line class="cls-1" x1="308.64" y1="3.54" x2="3.54" y2="308.64"/><line class="cls-1" x1="173.77" y1="3.54" x2="3.54" y2="173.77"/><line class="cls-1" x1="38.89" y1="3.54" x2="3.54" y2="38.89"/></g></g></svg>
