<svg xmlns="http://www.w3.org/2000/svg" viewBox="0 0 1548.29 293.27"><defs><style>.cls-1{fill:#fff;stroke:#000;stroke-miterlimit:10;stroke-width:10px;}</style></defs><title>layer-2_1</title><g id="Layer_2" data-name="Layer 2"><g id="Layer_1-2" data-name="Layer 1"><polyline class="cls-1" points="2.35 35.69 58.6 5.69 112.6 35.69 112.6 293.27"/><path class="cls-1" d="M2.35,293.27"/><polyline class="cls-1" points="112.6 293.27 112.6 35.69 168.85 5.69 222.85 35.69 222.85 293.27"/><polyline class="cls-1" points="222.85 293.27 222.85 35.69 279.11 5.69 333.11 35.69 333.11 293.27"/><polyline class="cls-1" points="333.11 293.27 333.11 35.69 389.36 5.69 443.36 35.69 443.36 293.27"/><polyline class="cls-1" points="443.36 293.27 443.36 35.69 499.61 5.69 553.61 35.69 553.61 293.27"/><polyline class="cls-1" points="553.61 293.27 553.61 35.69 609.86 5.69 663.86 35.69 663.86 293.27"/><polyline class="cls-1" points="663.86 293.27 663.86 35.69 720.11 5.69 774.11 35.69 774.11 293.27"/><polyline class="cls-1" points="774.11 293.27 774.11 35.69 830.36 5.69 884.36 35.69 884.36 293.27"/><polyline class="cls-1" points="884.36 293.27 884.36 35.69 940.61 5.69 994.61 35.69 994.61 293.27"/><polyline class="cls-1" points="994.61 293.27 994.61 35.69 1050.86 5.69 1104.86 35.69 1104.86 293.27"/><polyline class="cls-1" points="1104.86 293.27 1104.86 35.69 1161.11 5.69 1215.11 35.69 1215.11 293.27"/><polyline class="cls-1" points="1215.11 293.27 1215.11 35.69 1271.36 5.69 1325.36 35.69 1325.36 293.27"/><polyline class="cls-1" points="1325.36 293.27 1325.36 35.69 1381.61 5.69 1435.61 35.69 1435.61 293.27"/><path class="cls-1" d="M1545.86,293.27"/><polyline class="cls-1" points="1435.61 293.27 1435.61 35.69 1491.86 5.69 1545.86 35.69"/></g></g></svg>
