<svg xmlns="http://www.w3.org/2000/svg" viewBox="0 0 321.58 43.53"><title>logo_1</title><g id="Layer_2" data-name="Layer 2"><g id="Layer_1-2" data-name="Layer 1"><path d="M11.29,42.77v-31H0V.69H35.26V11.8H24v31Z"/><path d="M67.62,42.77V26.68H52.54V42.77H39.8V.69H52.54V15.58H67.62V.69H80.36V42.77Z"/><path d="M87.18,42.77V.69h31.92V11.8H99.92V16h18.73v11.1H99.92v4.6h19.18v11.1Z"/><path d="M140.85,42.77V.69h18.8c13.25,0,23.09,7.57,23.09,21s-9.84,21.07-23,21.07Zm29-21.07c0-5.68-3.28-9.9-10.09-9.9H153.6V31.67h6.06A9.72,9.72,0,0,0,169.81,21.7Z"/><path d="M185,21.76C185,8.83,195,0,208,0s23,8.83,23,21.76-10,21.76-23,21.76S185,34.69,185,21.76Zm33.12,0c0-5.87-4-10.53-10.09-10.53s-10.09,4.67-10.09,10.53,4,10.53,10.09,10.53S218.13,27.63,218.13,21.76Z"/><path d="M233.33,21.76c0-12.93,10-21.76,23-21.76s23,8.83,23,21.76-10,21.76-23,21.76S233.33,34.69,233.33,21.76Zm33.12,0c0-5.87-4-10.53-10.09-10.53s-10.09,4.67-10.09,10.53,4,10.53,10.09,10.53S266.45,27.63,266.45,21.76Z"/><path d="M307.07,42.77l-5.8-13.25h-4.6V42.77H283.92V.69h22.46c9.84,0,15.14,6.56,15.14,14.45a13.56,13.56,0,0,1-7.57,12.74l7.63,14.89Zm1.51-27.69c0-2.27-2-3.28-4.16-3.28h-7.76v6.62h7.76C306.56,18.42,308.58,17.41,308.58,15.08Z"/></g></g></svg>