<svg version="1.1"
	 xmlns="http://www.w3.org/2000/svg" xmlns:xlink="http://www.w3.org/1999/xlink" xmlns:a="http://ns.adobe.com/AdobeSVGViewerExtensions/3.0/"
	 x="0px" y="0px" width="506.4px" height="217.9px" viewBox="0 0 506.4 217.9" style="enable-background:new 0 0 506.4 217.9;"
	 xml:space="preserve">
<defs>
</defs>
<g>
	<path d="M0.2,119.8V1.9h52.6c37.1,0,64.7,21.2,64.7,58.8s-27.6,59-64.5,59H0.2z M81.3,60.8C81.3,44.9,72.1,33,53,33H35.9v55.7h17
		C70.7,88.7,81.3,75.6,81.3,60.8z"/>
	<path d="M123.9,61c0-36.2,28.1-61,64.5-61c36.4,0,64.5,24.7,64.5,61s-28.1,61-64.5,61C152,121.9,123.9,97.2,123.9,61z M216.6,61
		c0-16.4-11.1-29.5-28.3-29.5c-17.1,0-28.3,13.1-28.3,29.5s11.1,29.5,28.3,29.5C205.5,90.5,216.6,77.4,216.6,61z"/>
	<path d="M259.2,61c0-36.2,28.1-61,64.5-61c36.4,0,64.5,24.7,64.5,61s-28.1,61-64.5,61C287.3,121.9,259.2,97.2,259.2,61z M352,61
		c0-16.4-11.1-29.5-28.3-29.5c-17.1,0-28.3,13.1-28.3,29.5s11.1,29.5,28.3,29.5C340.8,90.5,352,77.4,352,61z"/>
	<path d="M465.7,119.8l-16.3-37.1h-12.9v37.1h-35.7V1.9h62.9c27.6,0,42.4,18.4,42.4,40.5c0,20.3-11.8,31.1-21.2,35.7l21.4,41.7
		H465.7z M470,42.2c0-6.4-5.7-9.2-11.7-9.2h-21.7v18.6h21.7C464.3,51.6,470,48.8,470,42.2z"/>
	<path d="M74.8,216.4v-50.8l-18.9,50.8H44.5l-18.9-50.8v50.8H0v-84.6h35.4l14.8,40.6L65,131.8h35.4v84.6H74.8z"/>
	<path d="M170.5,216.4l-3-9.9H137l-3,9.9h-29l31.2-84.6h32.2l31.2,84.6H170.5z M152.3,156.9l-8.4,27.3h16.7L152.3,156.9z"/>
	<path d="M197.6,204.5l13.3-19c6.3,6.1,15.8,10.9,27.3,10.9c4.8,0,9.4-1.3,9.4-4.6c0-8.1-47.2,0.1-47.2-33.2c0-14.3,11.9-28,35.1-28
		c13.8,0,26.2,3.9,35.9,11.8l-13.7,18.1c-7.4-5.6-16.9-8.4-24.8-8.4c-5.1,0-6.5,1.6-6.5,3.8c0,8,47,1.1,47,32.6
		c0,18.6-13.8,29.4-36.5,29.4C218.9,217.9,206.6,212.6,197.6,204.5z"/>
	<path d="M297.4,216.4v-62.2h-22.7v-22.3h70.9v22.3H323v62.2H297.4z"/>
	<path d="M354.7,216.4v-84.6h64.1v22.3h-38.5v8.4H418v22.3h-37.7v9.3h38.5v22.3H354.7z"/>
	<path d="M476.8,216.4l-11.7-26.6h-9.3v26.6h-25.6v-84.6h45.1c19.8,0,30.4,13.2,30.4,29c0,14.6-8.5,22.3-15.2,25.6l15.3,29.9H476.8z
		 M479.8,160.7c0-4.6-4.1-6.6-8.4-6.6h-15.6v13.3h15.6C475.8,167.4,479.8,165.4,479.8,160.7z"/>
</g>
</svg>
