<svg xmlns="http://www.w3.org/2000/svg" viewBox="0 0 493.57 94.34"><title>reward-2</title><g id="Layer_2" data-name="Layer 2"><g id="Layer_1-2" data-name="Layer 1"><path d="M30.87,47.46V29.61H14.14V47.46H0V.77H14.14V17.29H30.87V.77H45v46.7Z"/><path d="M52.57,47.46V.77H88V13.09H66.71v4.62H87.5V30H66.71v5.11H88V47.46Z"/><path d="M94.29,47.46V.77h28.35c9.66,0,13.86,6.44,13.86,11.9,0,5.81-3.43,9.73-8,10.71,5,.77,8.89,5.39,8.89,11.41,0,6.51-4.41,12.67-13.79,12.67Zm27.86-32.27a2.69,2.69,0,0,0-2.8-2.66H108.43V18h10.92A2.76,2.76,0,0,0,122.15,15.19Zm.91,17.57a3,3,0,0,0-3.29-3H108.43v6h11.34C121.8,35.7,123.06,34.51,123.06,32.76Z"/><path d="M143.08,47.46V.77H178.5V13.09H157.22v4.62H178V30H157.22v5.11H178.5V47.46Z"/><path d="M184.8,47.46V.77h24.92c10.92,0,16.8,7.28,16.8,16s-5.88,16-16.8,16H198.94v14.7ZM212.17,16.8c0-2.52-1.89-3.71-4.27-3.71h-9v7.35h9C210.28,20.44,212.17,19.25,212.17,16.8Z"/><path d="M228.62,24.15C228.62,9.8,239.75,0,254.17,0s25.55,9.8,25.55,24.15S268.59,48.3,254.17,48.3,228.62,38.5,228.62,24.15Zm36.75,0c0-6.51-4.41-11.69-11.2-11.69S243,17.64,243,24.15s4.41,11.69,11.2,11.69S265.37,30.66,265.37,24.15Z"/><path d="M282.87,47.46l8.47-16.52c-3.71-1.82-8.4-6.09-8.4-14.14,0-8.75,5.88-16,16.8-16h24.92v46.7H310.52V32.76h-5.11L299,47.46Zm27.65-27V13.09h-8.61c-2.38,0-4.62,1.12-4.62,3.64s2.24,3.71,4.62,3.71Z"/><path d="M342.23,47.46V13.09H329.7V.77h39.13V13.09H356.37V47.46Z"/><path d="M404.74,47.46V29.61H388V47.46H373.86V.77H388V17.29h16.73V.77h14.14v46.7Z"/><path d="M423.91,24.15C423.91,9.8,435,0,449.47,0S475,9.8,475,24.15,463.89,48.3,449.47,48.3,423.91,38.5,423.91,24.15Zm36.75,0c0-6.51-4.41-11.69-11.2-11.69s-11.2,5.18-11.2,11.69,4.41,11.69,11.2,11.69S460.67,30.66,460.67,24.15Z"/><path d="M480.47,30.1,478.58.77h15L491.81,30.1Zm-1.75,10.71a7.42,7.42,0,1,1,7.42,7.42A7.53,7.53,0,0,1,478.72,40.81Z"/><path d="M61.6,78.51c0-7.11,5.52-12,12.66-12s12.66,4.86,12.66,12-5.52,12-12.66,12S61.6,85.63,61.6,78.51Zm18.22,0a5.56,5.56,0,1,0-5.55,5.79A5.48,5.48,0,0,0,79.82,78.51Z"/><path d="M95.39,74.25c0,2.25,1.35,2.84,3.19,2.84a9.67,9.67,0,0,0,3.37-.52V66.93h7V90.07h-7V82.68a21.32,21.32,0,0,1-4.41.52c-6.35,0-9.26-3.61-9.26-9V66.93h7.11Z"/><path d="M112.71,90.07V66.93h17.56V73H119.71v2.29H130v6.11h-10.3V84h10.55v6.11Z"/><path d="M133.38,90.07V66.93h12.35c5.41,0,8.33,3.61,8.33,7.95s-2.91,7.91-8.33,7.91h-5.34v7.29Zm13.57-15.2c0-1.25-.94-1.84-2.12-1.84h-4.44v3.64h4.44C146,76.68,146.95,76.09,146.95,74.87Z"/><path d="M156.35,90.07V66.93H173.9V73H163.36v2.29h10.3v6.11h-10.3V84H173.9v6.11Z"/><path d="M175.84,84.31c2.08-.38,3.43-1.32,4-5.73l1.42-11.66h18.08V84h2V94.34h-7V90.07H182.85v4.27h-7Zm8.71-.35h7.77V73h-4.75l-.76,6.07A8.17,8.17,0,0,1,184.55,84Z"/><path d="M219,90.07V81.22h-8.29v8.85h-7V66.93h7v8.19H219V66.93h7V90.07Z"/><path d="M245.16,90.07l-.83-2.71H236l-.83,2.71h-7.95l8.54-23.14h8.81l8.54,23.14Zm-5-16.27-2.29,7.46h4.58Z"/><path d="M253.41,90.07l4.2-8.19a7.46,7.46,0,0,1-4.16-7c0-4.34,2.91-7.95,8.33-7.95h12.35V90.07h-7V82.78h-2.53l-3.19,7.29Zm13.7-13.39V73h-4.27c-1.18,0-2.29.56-2.29,1.8s1.11,1.84,2.29,1.84Z"/><path d="M302,90.07V73h-8.29v17h-7V66.93H309V90.07Z"/><path d="M311.52,78.51c0-7.11,5.52-12,12.66-12s12.66,4.86,12.66,12-5.52,12-12.66,12S311.52,85.63,311.52,78.51Zm18.22,0a5.56,5.56,0,1,0-5.55,5.79A5.48,5.48,0,0,0,329.74,78.51Z"/><path d="M358.64,66.93V73H346.35v1.84H352c5.2,0,8,3.43,8,7.56s-2.78,7.63-8,7.63h-12.7V66.93ZM346.35,81v3h4.82c1,0,1.73-.49,1.73-1.49S352.15,81,351.18,81Z"/><path d="M362.31,90.07V66.93h17.56V73H369.32v2.29h10.3v6.11h-10.3V84h10.55v6.11Z"/><path d="M381.81,84.31c2.08-.38,3.44-1.32,4-5.73l1.42-11.66H405.3V84h2V94.34h-7V90.07H388.82v4.27h-7Zm8.71-.35h7.77V73h-4.75l-.76,6.07A8.17,8.17,0,0,1,390.52,84Z"/><path d="M425.07,90.07l-.83-2.71h-8.33l-.83,2.71h-7.95l8.54-23.14h8.81L433,90.07Zm-5-16.27-2.29,7.46h4.58Z"/></g></g></svg>