<svg xmlns="http://www.w3.org/2000/svg" viewBox="0 0 259.76 47.71"><title>reward_1</title><g id="Layer_2" data-name="Layer 2"><g id="Layer_1-2" data-name="Layer 1"><path d="M59,18.91V5.22H54V.31H69.58V5.22h-5v13.7Z"/><path d="M81.77,18.91l-.67-2.18H74.41l-.67,2.18H67.35L74.21.31H81.3l6.86,18.6Zm-4-13.08-1.84,6H79.6Z"/><path d="M99.45,18.91l-4.18-6.55-1,1.39v5.16H88.6V.31h5.63v7l4.88-7H106L99,9l7.34,10Z"/><path d="M106.76,18.91V.31h14.11V5.22h-8.48V7.06h8.28V12h-8.28v2h8.48v4.91Z"/><path d="M134.34,18.91V11.52l-7-11.21h6.33l3.46,6.28,3.4-6.28h6.33L140,11.52v7.39Z"/><path d="M145.21,9.62C145.21,3.9,149.65,0,155.4,0s10.18,3.9,10.18,9.62-4.43,9.62-10.18,9.62S145.21,15.34,145.21,9.62Zm14.64,0a4.47,4.47,0,1,0-8.93,0,4.47,4.47,0,1,0,8.93,0Z"/><path d="M167,11.27V.31h5.72V11.07c0,1.79,1.17,3.21,3.49,3.21a3.12,3.12,0,0,0,3.46-3.21V.31h5.72V11.24c0,4.63-2.9,8-9.18,8S167,15.87,167,11.27Z"/><path d="M198.09,18.91l-2.57-5.86h-2v5.86h-5.63V.31h9.93c4.35,0,6.69,2.9,6.69,6.39a6,6,0,0,1-3.35,5.63l3.38,6.58Zm.67-12.25c0-1-.89-1.45-1.84-1.45h-3.43V8.14h3.43C197.87,8.14,198.76,7.7,198.76,6.67Z"/><path d="M10.24,43.61,7.67,37.75h-2v5.86H0V25H9.93c4.35,0,6.69,2.9,6.69,6.39A6,6,0,0,1,13.28,37l3.38,6.58Zm.67-12.25c0-1-.89-1.45-1.84-1.45H5.63v2.93H9.06C10,32.85,10.91,32.4,10.91,31.37Z"/><path d="M18.35,43.61V25H32.46v4.91H24v1.84h8.28v4.91H24v2h8.48v4.91Z"/><path d="M48.61,43.61l-2.4-10.54-2.4,10.54H37.9L32.57,25h6.3l2.4,11.38L44.09,25h4.24l2.82,11.38L53.52,25h6.33l-5.33,18.6Z"/><path d="M71.76,43.61l-.67-2.18H64.4l-.67,2.18H57.34L64.2,25h7.08l6.86,18.6Zm-4-13.08-1.84,6h3.68Z"/><path d="M88.83,43.61l-2.57-5.86h-2v5.86H78.59V25h9.93c4.35,0,6.69,2.9,6.69,6.39A6,6,0,0,1,91.87,37l3.38,6.58Zm.67-12.25c0-1-.89-1.45-1.84-1.45H84.22v2.93h3.43C88.6,32.85,89.5,32.4,89.5,31.37Z"/><path d="M96.94,43.61V25h8.31c5.86,0,10.21,3.35,10.21,9.29s-4.35,9.32-10.18,9.32Zm12.8-9.32c0-2.51-1.45-4.38-4.46-4.38h-2.71V38.7h2.68A4.3,4.3,0,0,0,109.74,34.3Z"/><path d="M118.44,47.71l-2-1.65a5.52,5.52,0,0,0,2.54-2.68,2.16,2.16,0,0,1-.73.11,2.44,2.44,0,0,1-2.43-2.59,2.94,2.94,0,0,1,2.9-2.93,3.3,3.3,0,0,1,3.24,3.6A7.51,7.51,0,0,1,118.44,47.71Z"/><path d="M146.64,43.61V32.43l-4.16,11.19H140l-4.16-11.19V43.61h-5.63V25H138l3.26,8.93L144.49,25h7.78v18.6Z"/><path d="M167.14,43.61l-.67-2.18h-6.69l-.67,2.18h-6.39L159.58,25h7.08l6.86,18.6Zm-4-13.08-1.84,6H165Z"/><path d="M174,43.61V25h14.11v4.91H179.6v1.84h8.28v4.91H179.6v2h8.48v4.91Z"/><path d="M188.61,41l2.93-4.18a8.67,8.67,0,0,0,6,2.4c1.06,0,2.06-.28,2.06-1,0-1.79-10.38,0-10.38-7.31,0-3.15,2.62-6.16,7.73-6.16a12.28,12.28,0,0,1,7.89,2.59l-3,4a9.4,9.4,0,0,0-5.47-1.84c-1.12,0-1.42.36-1.42.84,0,1.76,10.35.25,10.35,7.17,0,4.1-3,6.47-8,6.47A12.26,12.26,0,0,1,188.61,41Z"/><path d="M210,43.61V29.92h-5V25H220.6v4.91h-5v13.7Z"/><path d="M232.29,43.61l-2.57-5.86h-2v5.86H222V25H232c4.35,0,6.69,2.9,6.69,6.39A6,6,0,0,1,235.33,37l3.38,6.58ZM233,31.37c0-1-.89-1.45-1.84-1.45h-3.43v2.93h3.43C232.06,32.85,233,32.4,233,31.37Z"/><path d="M239.39,34.32c0-5.72,4.44-9.62,10.18-9.62s10.18,3.9,10.18,9.62-4.43,9.62-10.18,9.62S239.39,40,239.39,34.32Zm14.64,0a4.47,4.47,0,1,0-8.93,0,4.47,4.47,0,1,0,8.93,0Z"/></g></g></svg>