<svg xmlns="http://www.w3.org/2000/svg" viewBox="0 0 330.98 45.59"><title>reward_2</title><g id="Layer_2" data-name="Layer 2"><g id="Layer_1-2" data-name="Layer 1"><path d="M14,24.34,8.58,15.9,7.25,17.7v6.64H0V.39H7.25v9l6.28-9H22.4l-9,11.13,9.44,12.81Z"/><path d="M21.35,12.38C21.35,5,27.06,0,34.46,0s13.1,5,13.1,12.38-5.71,12.38-13.1,12.38S21.35,19.74,21.35,12.38Zm18.85,0a5.75,5.75,0,1,0-11.49,0,5.75,5.75,0,1,0,11.49,0Z"/><path d="M66.22,24.34,57.39,12.21V24.34H50.14V.39H57.6l8.33,11.34V.39h7.25V24.34Z"/><path d="M75.76,12.38C75.76,4.7,81.69,0,88.94,0A11.16,11.16,0,0,1,99.46,6.25l-6.1,3.12a5,5,0,0,0-4.41-3,5.73,5.73,0,0,0-5.82,6,5.72,5.72,0,0,0,5.82,6,7.08,7.08,0,0,0,3.73-1.08v-.86H88.22V10.12H99.89v9.8a14.21,14.21,0,0,1-10.95,4.85C81.69,24.77,75.76,20,75.76,12.38Z"/><path d="M116.29,24.34,113,16.8h-2.62v7.54h-7.25V.39h12.78c5.6,0,8.61,3.73,8.61,8.22a7.72,7.72,0,0,1-4.31,7.25l4.34,8.47Zm.86-15.76c0-1.29-1.15-1.87-2.37-1.87h-4.41v3.77h4.41C116,10.48,117.15,9.91,117.15,8.58Z"/><path d="M143.42,24.34l-.86-2.8h-8.61l-.86,2.8h-8.22L133.69.39h9.12l8.83,23.94ZM138.25,7.5l-2.37,7.72h4.74Z"/><path d="M155.91,24.34V6.71h-6.43V.39h20.07V6.71h-6.39V24.34Z"/><path d="M172.13,14.5V.39h7.36V14.25c0,2.3,1.51,4.13,4.49,4.13s4.45-1.83,4.45-4.13V.39h7.36V14.47c0,6-3.73,10.3-11.81,10.3S172.13,20.43,172.13,14.5Z"/><path d="M199.66,24.34V.39h7.25V18H216v6.32Z"/><path d="M218.89,24.34V.39h7.25V24.34Z"/><path d="M230,24.34V.39h18.16V6.71H237.27V9.08h10.66V15.4H237.27V18h10.91v6.32Z"/><path d="M264.58,24.34l-3.3-7.54h-2.62v7.54h-7.25V.39h12.78c5.6,0,8.61,3.73,8.61,8.22a7.72,7.72,0,0,1-4.31,7.25l4.34,8.47Zm.86-15.76c0-1.29-1.15-1.87-2.37-1.87h-4.41v3.77h4.41C264.3,10.48,265.45,9.91,265.45,8.58Z"/><path d="M275.74,24.34V.39h18.16V6.71H283V9.08h10.66V15.4H283V18h10.91v6.32Z"/><path d="M313.21,24.34l-8.83-12.13V24.34h-7.25V.39h7.47l8.33,11.34V.39h7.25V24.34Z"/><path d="M324.27,15.44l-1-15H331l-.9,15Zm-.9,5.49a3.81,3.81,0,1,1,3.8,3.8A3.86,3.86,0,0,1,323.37,20.93Z"/><path d="M21.41,42.78V33.41H18V30.05H28.66v3.36h-3.4v9.37Z"/><path d="M37.38,42.78l-.46-1.49H32.35l-.46,1.49H27.52l4.7-12.73h4.85l4.7,12.73Zm-2.75-9-1.26,4.1H35.9Z"/><path d="M49.86,42.78,47,38.3l-.71,1v3.53H42.44V30.05h3.86v4.77l3.34-4.77h4.71L49.54,36l5,6.81Z"/><path d="M55.24,42.78V30.05H64.9v3.36H59.1v1.26h5.67V38H59.1v1.39h5.8v3.36Z"/><path d="M74.21,42.78V33.41H70.8V30.05H81.46v3.36h-3.4v9.37Z"/><path d="M81.77,36.43c0-3.91,3-6.58,7-6.58s7,2.67,7,6.58-3,6.58-7,6.58S81.77,40.34,81.77,36.43Zm10,0a3.06,3.06,0,1,0-3.05,3.19A3,3,0,0,0,91.79,36.43Z"/><path d="M97.07,37.55v-7.5H101v7.37a2.38,2.38,0,0,0,4.75,0V30.05h3.91v7.48c0,3.17-2,5.48-6.28,5.48S97.07,40.7,97.07,37.55Z"/><path d="M118.71,42.78l-1.76-4h-1.39v4h-3.86V30.05h6.79a4.23,4.23,0,0,1,4.58,4.37,4.1,4.1,0,0,1-2.29,3.85l2.31,4.5Zm.46-8.38c0-.69-.61-1-1.26-1h-2.35v2h2.35C118.56,35.42,119.17,35.11,119.17,34.4Z"/><path d="M136.51,42.78l-1.76-4h-1.39v4h-3.86V30.05h6.79a4.23,4.23,0,0,1,4.58,4.37,4.1,4.1,0,0,1-2.29,3.85l2.31,4.5ZM137,34.4c0-.69-.61-1-1.26-1h-2.35v2h2.35C136.36,35.42,137,35.11,137,34.4Z"/><path d="M142.45,42.78V30.05h9.66v3.36h-5.8v1.26H152V38H146.3v1.39h5.8v3.36Z"/><path d="M163.54,42.78l-1.64-7.21-1.64,7.21h-4l-3.65-12.73h4.31l1.64,7.79,1.93-7.79h2.9l1.93,7.79,1.62-7.79h4.33l-3.65,12.73Z"/><path d="M179.75,42.78l-.46-1.49h-4.58l-.46,1.49h-4.37l4.7-12.73h4.85l4.7,12.73Zm-2.75-9-1.26,4.1h2.52Z"/><path d="M191.81,42.78l-1.76-4h-1.39v4h-3.86V30.05h6.79a4.23,4.23,0,0,1,4.58,4.37,4.1,4.1,0,0,1-2.29,3.85l2.31,4.5Zm.46-8.38c0-.69-.61-1-1.26-1h-2.35v2H191C191.66,35.42,192.27,35.11,192.27,34.4Z"/><path d="M197.75,42.78V30.05h5.69c4,0,7,2.29,7,6.36s-3,6.37-7,6.37Zm8.76-6.37a2.78,2.78,0,0,0-3.05-3H201.6v6h1.83A2.94,2.94,0,0,0,206.51,36.41Z"/><path d="M212.84,45.59l-1.39-1.13a3.78,3.78,0,0,0,1.74-1.83,1.49,1.49,0,0,1-.5.08A1.67,1.67,0,0,1,211,40.93a2,2,0,0,1,2-2,2.26,2.26,0,0,1,2.21,2.46A5.14,5.14,0,0,1,212.84,45.59Z"/><path d="M232.9,42.78V35.13l-2.84,7.65h-1.72l-2.84-7.65v7.65h-3.86V30.05H227l2.23,6.11,2.23-6.11h5.32V42.78Z"/><path d="M247.3,42.78l-.46-1.49h-4.58l-.46,1.49h-4.37l4.7-12.73H247l4.7,12.73Zm-2.75-9-1.26,4.1h2.52Z"/><path d="M252.36,42.78V30.05H262v3.36h-5.8v1.26h5.67V38h-5.67v1.39H262v3.36Z"/><path d="M262.76,41l2-2.86a5.93,5.93,0,0,0,4.1,1.64c.73,0,1.41-.19,1.41-.69,0-1.22-7.1,0-7.1-5,0-2.16,1.79-4.22,5.29-4.22a8.4,8.4,0,0,1,5.4,1.77l-2.06,2.73a6.43,6.43,0,0,0-3.74-1.26c-.76,0-1,.25-1,.57,0,1.2,7.08.17,7.08,4.9,0,2.81-2.08,4.43-5.5,4.43A8.39,8.39,0,0,1,262.76,41Z"/><path d="M277.78,42.78V33.41h-3.42V30.05H285v3.36h-3.4v9.37Z"/><path d="M293.41,42.78l-1.76-4h-1.39v4H286.4V30.05h6.79a4.23,4.23,0,0,1,4.58,4.37,4.1,4.1,0,0,1-2.29,3.85l2.31,4.5Zm.46-8.38c0-.69-.61-1-1.26-1h-2.35v2h2.35C293.25,35.42,293.86,35.11,293.86,34.4Z"/><path d="M298.65,36.43c0-3.91,3-6.58,7-6.58s7,2.67,7,6.58-3,6.58-7,6.58S298.65,40.34,298.65,36.43Zm10,0a3.06,3.06,0,1,0-3.05,3.19A3,3,0,0,0,308.67,36.43Z"/></g></g></svg>