<svg xmlns="http://www.w3.org/2000/svg" viewBox="0 0 577.4 85.48"><title>reward</title><g id="Layer_2" data-name="Layer 2"><g id="Layer_1-2" data-name="Layer 1"><path d="M24.36,42.46,15,27.74l-2.32,3.13V42.46H0V.69H12.65V16.34L23.61.69H39.08L23.29,20.1,39.76,42.46Z"/><path d="M37.25,21.6C37.25,8.77,47.21,0,60.11,0S83,8.77,83,21.6s-10,21.6-22.86,21.6S37.25,34.44,37.25,21.6Zm32.88,0c0-5.82-3.94-10.46-10-10.46s-10,4.63-10,10.46,3.95,10.46,10,10.46S70.13,27.43,70.13,21.6Z"/><path d="M115.52,42.46,100.12,21.29V42.46H87.47V.69h13L115,20.48V.69h12.65V42.46Z"/><path d="M132.17,21.6c0-13.4,10.33-21.6,23-21.6,10,0,15.72,5.51,18.35,10.9l-10.65,5.45a8.72,8.72,0,0,0-7.7-5.2c-6.07,0-10.15,4.63-10.15,10.46s4.07,10.46,10.15,10.46a12.34,12.34,0,0,0,6.51-1.88v-1.5H153.9v-11h20.35v17.1a24.8,24.8,0,0,1-19.1,8.45C142.51,43.21,132.17,34.94,132.17,21.6Z"/><path d="M202.86,42.46,197.1,29.31h-4.57V42.46H179.88V.69h22.29c9.77,0,15,6.51,15,14.34a13.46,13.46,0,0,1-7.51,12.65l7.58,14.78ZM204.37,15c0-2.25-2-3.25-4.13-3.25h-7.7v6.57h7.7C202.36,18.29,204.37,17.29,204.37,15Z"/><path d="M250.2,42.46l-1.5-4.88h-15l-1.5,4.88H217.82L233.23.69h15.91l15.41,41.77Zm-9-29.37L237,26.55h8.27Z"/><path d="M272,42.46V11.71H260.78V.69h35v11H284.63V42.46Z"/><path d="M300.28,25.3V.69h12.84V24.86c0,4,2.63,7.2,7.83,7.2s7.76-3.19,7.76-7.2V.69h12.84V25.24c0,10.4-6.51,18-20.6,18S300.28,35.63,300.28,25.3Z"/><path d="M348.31,42.46V.69H361V31.44H376.8v11Z"/><path d="M381.87,42.46V.69h12.65V42.46Z"/><path d="M401.28,42.46V.69H433v11h-19v4.13h18.6v11h-18.6v4.57h19v11Z"/><path d="M461.57,42.46l-5.76-13.15h-4.57V42.46H438.59V.69h22.29c9.77,0,15,6.51,15,14.34a13.46,13.46,0,0,1-7.51,12.65L476,42.46ZM463.08,15c0-2.25-2-3.25-4.13-3.25h-7.7v6.57h7.7C461.07,18.29,463.08,17.29,463.08,15Z"/><path d="M481,42.46V.69h31.69v11h-19v4.13h18.6v11h-18.6v4.57h19v11Z"/><path d="M546.41,42.46,531,21.29V42.46H518.36V.69h13l14.53,19.79V.69h12.65V42.46Z"/><path d="M565.69,26.93,564,.69h13.4l-1.57,26.24Zm-1.57,9.58a6.64,6.64,0,1,1,6.64,6.64A6.74,6.74,0,0,1,564.13,36.51Z"/><path d="M71.55,81.27V67.19H66.42v-5h16v5h-5.1V81.27Z"/><path d="M95.55,81.27,94.86,79H88l-.69,2.24H80.73l7.05-19.12h7.28l7.05,19.12ZM91.42,67.82,89.53,74h3.78Z"/><path d="M114.3,81.27,110,74.53,108.93,76v5.3h-5.79V62.14h5.79v7.17l5-7.17H121L113.81,71l7.54,10.24Z"/><path d="M122.38,81.27V62.14h14.51v5h-8.72v1.89h8.52v5h-8.52v2.09h8.72v5Z"/><path d="M151.88,81.27v-7.6l-7.17-11.53h6.51l3.56,6.45,3.5-6.45h6.51l-7.11,11.53v7.6Z"/><path d="M163.63,71.72c0-5.88,4.56-9.89,10.46-9.89s10.47,4,10.47,9.89-4.56,9.89-10.47,9.89S163.63,77.6,163.63,71.72Zm15.05,0a4.59,4.59,0,1,0-4.59,4.79A4.53,4.53,0,0,0,178.68,71.72Z"/><path d="M186.62,73.41V62.14h5.88V73.21c0,1.83,1.2,3.3,3.58,3.3a3.2,3.2,0,0,0,3.56-3.3V62.14h5.88V73.38c0,4.76-3,8.23-9.43,8.23S186.62,78.14,186.62,73.41Z"/><path d="M219.13,81.27l-2.64-6H214.4v6h-5.79V62.14h10.21c4.47,0,6.88,3,6.88,6.57a6.16,6.16,0,0,1-3.44,5.79l3.47,6.77Zm.69-12.59c0-1-.92-1.49-1.89-1.49H214.4v3h3.53C218.9,70.2,219.82,69.74,219.82,68.68Z"/><path d="M245.87,81.27l-2.64-6h-2.09v6h-5.79V62.14h10.21c4.47,0,6.88,3,6.88,6.57A6.16,6.16,0,0,1,249,74.5l3.47,6.77Zm.69-12.59c0-1-.92-1.49-1.89-1.49h-3.53v3h3.53C245.65,70.2,246.56,69.74,246.56,68.68Z"/><path d="M254.79,81.27V62.14H269.3v5h-8.72v1.89h8.52v5h-8.52v2.09h8.72v5Z"/><path d="M286.47,81.27,284,70.43l-2.47,10.84h-6.08L270,62.14h6.48l2.47,11.7,2.9-11.7h4.36l2.9,11.7,2.44-11.7H298l-5.48,19.12Z"/><path d="M310.83,81.27,310.15,79h-6.88l-.69,2.24H296l7.05-19.12h7.28l7.05,19.12ZM306.7,67.82,304.81,74h3.78Z"/><path d="M329,81.27l-2.64-6h-2.09v6h-5.79V62.14h10.21c4.47,0,6.88,3,6.88,6.57a6.16,6.16,0,0,1-3.44,5.79l3.47,6.77Zm.69-12.59c0-1-.92-1.49-1.89-1.49h-3.53v3h3.53C328.72,70.2,329.64,69.74,329.64,68.68Z"/><path d="M337.86,81.27V62.14h8.54c6,0,10.49,3.44,10.49,9.55s-4.47,9.58-10.46,9.58ZM351,71.69c0-2.58-1.49-4.5-4.59-4.5h-2.78v9h2.75A4.42,4.42,0,0,0,351,71.69Z"/><path d="M360.54,85.48l-2.09-1.69A5.68,5.68,0,0,0,361.06,81a2.24,2.24,0,0,1-.75.12,2.51,2.51,0,0,1-2.49-2.67,3,3,0,0,1,3-3,3.4,3.4,0,0,1,3.33,3.7A7.72,7.72,0,0,1,360.54,85.48Z"/><path d="M390.67,81.27V69.77l-4.27,11.5h-2.58l-4.27-11.5v11.5h-5.79V62.14h8l3.35,9.17,3.35-9.17h8V81.27Z"/><path d="M412.31,81.27,411.62,79h-6.88l-.69,2.24h-6.57l7.05-19.12h7.28l7.05,19.12Zm-4.13-13.45L406.29,74h3.78Z"/><path d="M419.91,81.27V62.14h14.51v5H425.7v1.89h8.52v5H425.7v2.09h8.72v5Z"/><path d="M435.53,78.57l3-4.3a8.91,8.91,0,0,0,6.16,2.47c1.09,0,2.12-.29,2.12-1,0-1.83-10.67,0-10.67-7.51,0-3.24,2.7-6.34,7.94-6.34a12.62,12.62,0,0,1,8.11,2.67l-3.1,4.1a9.66,9.66,0,0,0-5.62-1.89c-1.15,0-1.46.37-1.46.86,0,1.81,10.64.26,10.64,7.37,0,4.21-3.12,6.65-8.26,6.65C440.35,81.61,437.57,80.41,435.53,78.57Z"/><path d="M458.09,81.27V67.19H453v-5h16v5h-5.1V81.27Z"/><path d="M481.57,81.27l-2.64-6h-2.09v6H471V62.14h10.21c4.47,0,6.88,3,6.88,6.57a6.16,6.16,0,0,1-3.44,5.79l3.47,6.77Zm.69-12.59c0-1-.92-1.49-1.89-1.49h-3.53v3h3.53C481.34,70.2,482.26,69.74,482.26,68.68Z"/><path d="M489.45,71.72c0-5.88,4.56-9.89,10.46-9.89s10.47,4,10.47,9.89-4.56,9.89-10.47,9.89S489.45,77.6,489.45,71.72Zm15.05,0a4.59,4.59,0,1,0-4.59,4.79A4.53,4.53,0,0,0,504.5,71.72Z"/></g></g></svg>